<svg xmlns="http://www.w3.org/2000/svg" viewBox="0 0 273.04 45.66">
    <defs><style>.cls-1{fill:#232323;}</style></defs>
    < id="logo" data-name="logo_svg">
    <path class="cls-1" d="M2.52,33.15A9.54,9.54,0,0,1,0,26.24V9.54A9.56,9.56,0,0,1,2.52,2.62,8.76,8.76,0,0,1,9.14,0a8,8,0,0,1,6.28,2.67A11.26,11.26,0,0,1,17.94,10c0,.69-.32,1-.94,1H11.66a1,1,0,0,1-.72-.25,1,1,0,0,1-.27-.74c0-2.17-.61-3.26-1.73-3.26a1.41,1.41,0,0,0-1.18.57,2.42,2.42,0,0,0-.45,1.55V26.83a2.45,2.45,0,0,0,.45,1.56A1.41,1.41,0,0,0,8.94,29c1.19,0,1.83-1.25,1.93-3.75q.11-1,1-1h5.33c.7,0,1,.38.94,1.14-.13,3.29-1,5.85-2.57,7.68a8,8,0,0,1-6.42,2.74A8.76,8.76,0,0,1,2.52,33.15Z"/>
    <path class="cls-1" d="M20.6,34.19V1.58a.88.88,0,0,1,1-1h4.84a.88.88,0,0,1,1,1v8.8a6.79,6.79,0,0,1,2.28-.5,7,7,0,0,1,5.46,2.35,9,9,0,0,1,2.1,6.2V34.19a.88.88,0,0,1-1,1H31.38a.88.88,0,0,1-1-1V18a1.78,1.78,0,0,0-.4-1.24,1.56,1.56,0,0,0-2.17,0,1.78,1.78,0,0,0-.4,1.24v16.2a.88.88,0,0,1-1,1H21.59A.88.88,0,0,1,20.6,34.19Z"/>
    <path class="cls-1" d="M42.59,33.43a8.58,8.58,0,0,1-2.27-6.2v-9.1a8.24,8.24,0,0,1,2.44-6,9.33,9.33,0,0,1,10.36-1.21,7.59,7.59,0,0,1,3,2.91,8.51,8.51,0,0,1,1.09,4.3,7.39,7.39,0,0,1-2.3,5.66,8.44,8.44,0,0,1-6,2.15H47.19v1.73a1.87,1.87,0,0,0,.37,1.24,1.31,1.31,0,0,0,1.06.44A1.41,1.41,0,0,0,50,28.26a1,1,0,0,1,1-.94h4.89c.69,0,1,.33.94,1a7.91,7.91,0,0,1-2.57,5.41,8.27,8.27,0,0,1-5.78,2.05A7.9,7.9,0,0,1,42.59,33.43ZM48.87,20c1,0,1.43-.56,1.43-1.68,0-1.32-.53-2-1.58-2a1.42,1.42,0,0,0-1.14.44A1.82,1.82,0,0,0,47.19,18v2Z"/>
    <path class="cls-1" d="M62,33.43a8.54,8.54,0,0,1-2.27-6.2v-9.1a8.24,8.24,0,0,1,2.44-6,9.32,9.32,0,0,1,10.35-1.21,7.62,7.62,0,0,1,3,2.91,8.51,8.51,0,0,1,1.09,4.3,7.39,7.39,0,0,1-2.3,5.66,8.44,8.44,0,0,1-6,2.15H66.56v1.73a1.87,1.87,0,0,0,.37,1.24,1.31,1.31,0,0,0,1.06.44,1.41,1.41,0,0,0,1.38-1.09,1,1,0,0,1,1-.94H75.3c.69,0,1,.33.94,1a8,8,0,0,1-2.57,5.41,8.29,8.29,0,0,1-5.78,2.05A7.89,7.89,0,0,1,62,33.43ZM68.24,20c1,0,1.43-.56,1.43-1.68,0-1.32-.53-2-1.58-2a1.42,1.42,0,0,0-1.14.44A1.82,1.82,0,0,0,66.56,18v2Z"/>
    <path class="cls-1" d="M82.79,34.59a8,8,0,0,1-3-3,8.31,8.31,0,0,1-1.06-3.78,2,2,0,0,1,.17-.87.81.81,0,0,1,.77-.32h4.84a1.07,1.07,0,0,1,1.09.89,4,4,0,0,0,.62,1.39,1.34,1.34,0,0,0,1.16.49,1.73,1.73,0,0,0,1.21-.44A1.46,1.46,0,0,0,89,27.82a1.63,1.63,0,0,0-.82-1.36,17.36,17.36,0,0,0-2.54-1.36,31.19,31.19,0,0,1-3.36-1.78A7.68,7.68,0,0,1,80,21a6.7,6.7,0,0,1-1-3.73,6.73,6.73,0,0,1,2.29-5.38,8.74,8.74,0,0,1,5.91-2A8.61,8.61,0,0,1,91.83,11a7.29,7.29,0,0,1,2.69,2.82,7.6,7.6,0,0,1,.89,3.24,1.53,1.53,0,0,1-.17.74c-.12.19-.37.29-.77.29H89.63c-.53,0-.87-.31-1-.94a1.3,1.3,0,0,0-1.38-.93,1.37,1.37,0,0,0-1,.32,1.11,1.11,0,0,0-.35.86,1.61,1.61,0,0,0,.8,1.34,15.68,15.68,0,0,0,2.47,1.28,27.07,27.07,0,0,1,3.4,1.8,8.16,8.16,0,0,1,2.35,2.4,6.72,6.72,0,0,1,1,3.81,7.22,7.22,0,0,1-2.33,5.58,8.57,8.57,0,0,1-6,2.12A9.16,9.16,0,0,1,82.79,34.59Z"/>
    <path class="cls-1" d="M100.7,33.43a8.54,8.54,0,0,1-2.28-6.2v-9.1a8.28,8.28,0,0,1,2.45-6,9.32,9.32,0,0,1,10.35-1.21,7.69,7.69,0,0,1,3,2.91,8.5,8.5,0,0,1,1.08,4.3A7.38,7.38,0,0,1,113,23.79a8.48,8.48,0,0,1-6,2.15h-1.68v1.73a1.93,1.93,0,0,0,.37,1.24,1.33,1.33,0,0,0,1.07.44,1.41,1.41,0,0,0,1.38-1.09,1,1,0,0,1,1-.94H114c.69,0,1,.33.94,1a8,8,0,0,1-2.57,5.41,8.29,8.29,0,0,1-5.78,2.05A7.89,7.89,0,0,1,100.7,33.43ZM107,20q1.44,0,1.44-1.68c0-1.32-.53-2-1.59-2a1.41,1.41,0,0,0-1.13.44,1.78,1.78,0,0,0-.4,1.24v2Z"/>
    <path class="cls-1" d="M128.12,34.19V9.54a9.59,9.59,0,0,1,2.5-6.92,9.61,9.61,0,0,1,13.19,0,9.63,9.63,0,0,1,2.49,6.92V34.19a.87.87,0,0,1-1,1H140a.88.88,0,0,1-1-1v-9h-3.66v9a.87.87,0,0,1-1,1h-5.29A.88.88,0,0,1,128.12,34.19ZM139,18.53V8.94a2.32,2.32,0,0,0-.49-1.55,1.69,1.69,0,0,0-1.34-.57,1.67,1.67,0,0,0-1.33.57,2.27,2.27,0,0,0-.5,1.55v9.59Z"/>
    <path class="cls-1" d="M151.94,33.43a8.45,8.45,0,0,1-2.33-6.2v-8.8a8.48,8.48,0,0,1,2.3-6.2,8.88,8.88,0,0,1,11.81-.2,8.7,8.7,0,0,1,2.54,5.86V18c0,.6-.31.89-.93.89h-5c-.57,0-.89-.32-1-1a2.4,2.4,0,0,0-.5-1.26,1.21,1.21,0,0,0-.94-.37,1.3,1.3,0,0,0-1,.44,1.78,1.78,0,0,0-.4,1.24v9.68a1.78,1.78,0,0,0,.4,1.24,1.38,1.38,0,0,0,1.08.44c.86,0,1.37-.59,1.53-1.78q.15-1,1-1h5c.7,0,1,.38.94,1.14a8.74,8.74,0,0,1-2.54,5.9,8,8,0,0,1-5.81,2.15A8.23,8.23,0,0,1,151.94,33.43Z"/>
    <path class="cls-1" d="M170.83,33.45a8.17,8.17,0,0,1-2.39-6.13,7.1,7.1,0,0,1,2.3-5.48,8.39,8.39,0,0,1,5.95-2.13h1.68V18a1.87,1.87,0,0,0-.37-1.24,1.29,1.29,0,0,0-1.06-.44,1.31,1.31,0,0,0-1.44,1.38q0,.45-.27.57a1.59,1.59,0,0,1-.71.12h-4.8c-.69,0-1-.33-.94-1a8.05,8.05,0,0,1,2.55-5.46,8.18,8.18,0,0,1,5.71-2,7.79,7.79,0,0,1,5.9,2.35,8.57,8.57,0,0,1,2.25,6.2v9.24a8.11,8.11,0,0,1-2.13,5.9,7.83,7.83,0,0,1-5.93,2.2A8.67,8.67,0,0,1,170.83,33.45Zm7.54-5.73V25.59h-1.24a1.87,1.87,0,0,0-1.35.45,1.65,1.65,0,0,0-.47,1.28,2.05,2.05,0,0,0,.47,1.46,1.59,1.59,0,0,0,1.26.52C177.92,29.3,178.37,28.77,178.37,27.72Z"/>
    <path class="cls-1" d="M204.85,1.58V27.23a8.51,8.51,0,0,1-2.29,6.2,9.13,9.13,0,0,1-12.21,0,8.51,8.51,0,0,1-2.3-6.2v-8.8a9.53,9.53,0,0,1,1.91-6.2,6.21,6.21,0,0,1,5.11-2.35,5.07,5.07,0,0,1,3,.74v-9a.88.88,0,0,1,1-1h4.85A.87.87,0,0,1,204.85,1.58ZM198,18a1.74,1.74,0,0,0-.42-1.24,1.75,1.75,0,0,0-2.32,0,1.74,1.74,0,0,0-.42,1.24v9.68a1.74,1.74,0,0,0,.42,1.24,1.75,1.75,0,0,0,2.32,0,1.74,1.74,0,0,0,.42-1.24Z"/>
    <path class="cls-1" d="M210.19,33.43a8.54,8.54,0,0,1-2.27-6.2v-9.1a8.24,8.24,0,0,1,2.44-6,9.32,9.32,0,0,1,10.35-1.21,7.62,7.62,0,0,1,3,2.91,8.51,8.51,0,0,1,1.09,4.3,7.39,7.39,0,0,1-2.3,5.66,8.46,8.46,0,0,1-6,2.15h-1.68v1.73a1.93,1.93,0,0,0,.37,1.24,1.34,1.34,0,0,0,1.07.44,1.41,1.41,0,0,0,1.38-1.09,1,1,0,0,1,1-.94h4.89c.69,0,1,.33.94,1a8,8,0,0,1-2.57,5.41,8.29,8.29,0,0,1-5.78,2.05A7.89,7.89,0,0,1,210.19,33.43ZM216.46,20q1.44,0,1.44-1.68c0-1.32-.53-2-1.58-2a1.42,1.42,0,0,0-1.14.44,1.83,1.83,0,0,0-.4,1.24v2Z"/>
    <path class="cls-1" d="M251,12.23a8.65,8.65,0,0,1,2.23,6.2V34.19a.88.88,0,0,1-1,1h-4.75a.87.87,0,0,1-1-1V18a1.93,1.93,0,0,0-.37-1.24,1.25,1.25,0,0,0-1-.44,1.23,1.23,0,0,0-1,.44,1.87,1.87,0,0,0-.37,1.24v16.2a.88.88,0,0,1-1,1H238a.88.88,0,0,1-1-1V18a1.87,1.87,0,0,0-.37-1.24,1.39,1.39,0,0,0-2,0A1.93,1.93,0,0,0,234.2,18v16.2a.88.88,0,0,1-1,1h-4.74a.88.88,0,0,1-1-1V18.43a8.61,8.61,0,0,1,2.23-6.2,7.7,7.7,0,0,1,5.88-2.35,7.37,7.37,0,0,1,4.74,1.63,7.37,7.37,0,0,1,4.74-1.63A7.7,7.7,0,0,1,251,12.23Z"/>
    <path class="cls-1" d="M273,11.46V37.11a8.62,8.62,0,0,1-2.2,6.3,8.14,8.14,0,0,1-6.1,2.25,7.88,7.88,0,0,1-5.83-2.18,9.11,9.11,0,0,1-2.42-6.13v-.14c0-.6.31-.89.93-.89h4.9c.52,0,.87.33,1,1,.17,1.29.63,1.93,1.39,1.93a1.38,1.38,0,0,0,1.08-.44,1.78,1.78,0,0,0,.4-1.24v-4.1a4,4,0,0,1-2.42.74A6.89,6.89,0,0,1,260,33.13a7.26,7.26,0,0,1-2.64-3,10.07,10.07,0,0,1-1-4.48V11.46a.86.86,0,0,1,1-1h4.85a.87.87,0,0,1,1,1V26.09a1.78,1.78,0,0,0,.39,1.23,1.37,1.37,0,0,0,1.09.45,1.35,1.35,0,0,0,1.08-.45,1.74,1.74,0,0,0,.4-1.23V11.46a.87.87,0,0,1,1-1h4.84A.87.87,0,0,1,273,11.46Z"/>
    </g></svg>