<svg version="1.1" id="レイヤー_1" xmlns="http://www.w3.org/2000/svg" x="0" y="0" viewBox="0 0 800 140" xml:space="preserve">
  <path id="logo-01-c" fill="#232323" d="M8.268 100.272C3.352 95.163.893 88.414.893 80.026V31.148c0-8.388 2.459-15.134 7.375-20.246 4.917-5.109 11.375-7.664 19.378-7.664 7.615 0 13.738 2.603 18.365 7.809s7.086 12.389 7.375 21.546c0 2.025-.918 3.037-2.748 3.037H35.021c-.868 0-1.568-.24-2.097-.724-.531-.481-.795-1.204-.795-2.169-.097-6.364-1.785-9.545-5.061-9.545-1.446 0-2.603.556-3.471 1.663-.867 1.11-1.301 2.628-1.301 4.556V81.76c0 1.93.434 3.448 1.301 4.556.868 1.109 2.025 1.663 3.471 1.663 3.471 0 5.35-3.663 5.64-10.99.192-1.928 1.157-2.892 2.892-2.892h15.618c2.025 0 2.94 1.109 2.748 3.326-.386 9.641-2.892 17.136-7.52 22.487-4.627 5.35-10.895 8.025-18.799 8.025-8.005.001-14.462-2.552-19.379-7.663z"/>
  <path id="logo-02-h" fill="#232323" d="M61.194 103.309V7.866c0-1.928.963-2.892 2.892-2.892h14.172c1.928 0 2.892.965 2.892 2.892v25.741c2.603-.962 4.82-1.446 6.652-1.446 6.555 0 11.881 2.291 15.979 6.869 4.097 4.58 6.147 10.629 6.147 18.148v46.131c0 1.93-.965 2.892-2.893 2.892H92.719c-1.929 0-2.892-.962-2.892-2.892V55.876c0-1.541-.386-2.748-1.157-3.615-.772-.868-1.832-1.302-3.181-1.302-1.352 0-2.411.434-3.182 1.302-.772.867-1.157 2.074-1.157 3.615v47.432c0 1.93-.965 2.892-2.892 2.892H64.086c-1.929.001-2.892-.961-2.892-2.891z"/>
  <path id="logo-03-e" fill="#232323" d="M125.545 101.068c-4.435-4.578-6.652-10.63-6.652-18.149V56.31c.192-7.326 2.579-13.183 7.158-17.57 4.578-4.386 10.579-6.58 18.004-6.58 4.531 0 8.627 1.012 12.292 3.037 3.663 2.024 6.555 4.869 8.676 8.532 2.119 3.664 3.182 7.859 3.182 12.581 0 6.846-2.242 12.364-6.725 16.558-4.483 4.194-10.339 6.291-17.57 6.291h-4.917v5.061c0 1.543.362 2.747 1.085 3.615.723.867 1.758 1.301 3.109 1.301 1.928 0 3.276-1.06 4.049-3.181.384-1.83 1.396-2.748 3.037-2.748h14.316c2.025 0 2.94.965 2.748 2.892-.578 6.557-3.087 11.835-7.52 15.835-4.435 4.002-10.075 6.001-16.92 6.001-7.134.001-12.919-2.288-17.352-6.867zm18.365-39.407c2.795 0 4.193-1.638 4.193-4.916 0-3.855-1.543-5.785-4.627-5.785-1.446 0-2.555.434-3.326 1.302-.772.867-1.157 2.074-1.157 3.615v5.784h4.917z"/>
  <path id="logo-04-e" fill="#232323" d="M182.232 101.068c-4.435-4.578-6.652-10.63-6.652-18.149V56.31c.192-7.326 2.579-13.183 7.158-17.57 4.578-4.386 10.579-6.58 18.004-6.58 4.531 0 8.627 1.012 12.292 3.037 3.663 2.024 6.555 4.869 8.676 8.532 2.119 3.664 3.182 7.859 3.182 12.581 0 6.846-2.242 12.364-6.725 16.558-4.483 4.194-10.339 6.291-17.57 6.291h-4.917v5.061c0 1.543.362 2.747 1.085 3.615.723.867 1.758 1.301 3.109 1.301 1.928 0 3.276-1.06 4.049-3.181.384-1.83 1.396-2.748 3.037-2.748h14.316c2.025 0 2.94.965 2.748 2.892-.578 6.557-3.087 11.835-7.52 15.835-4.435 4.002-10.075 6.001-16.92 6.001-7.134.001-12.919-2.288-17.352-6.867zm18.365-39.407c2.795 0 4.193-1.638 4.193-4.916 0-3.855-1.543-5.785-4.627-5.785-1.446 0-2.555.434-3.326 1.302-.772.867-1.157 2.074-1.157 3.615v5.784h4.917z"/>
  <path id="logo-05-s" fill="#232323" d="M243.185 104.466c-3.905-2.314-6.846-5.278-8.822-8.893-1.977-3.615-3.013-7.303-3.108-11.063 0-1.06.167-1.903.506-2.531.337-.626 1.084-.94 2.241-.94h14.172c1.638 0 2.698.868 3.182 2.603.481 1.735 1.084 3.086 1.807 4.049.724.965 1.855 1.446 3.399 1.446 1.446 0 2.626-.434 3.542-1.301.915-.868 1.374-1.928 1.374-3.182 0-1.541-.795-2.867-2.386-3.976-1.591-1.107-4.075-2.433-7.448-3.977-3.954-1.83-7.23-3.566-9.833-5.206-2.603-1.638-4.869-3.927-6.797-6.869-1.929-2.94-2.892-6.58-2.892-10.918 0-6.652 2.241-11.905 6.724-15.762 4.483-3.855 10.243-5.784 17.281-5.784 5.398 0 9.906 1.134 13.521 3.398 3.615 2.267 6.241 5.014 7.881 8.242 1.639 3.231 2.506 6.388 2.603 9.472 0 .868-.169 1.591-.506 2.169-.339.578-1.085.868-2.242.868h-14.172c-1.543 0-2.555-.915-3.037-2.748-.578-1.83-1.929-2.748-4.049-2.748-1.254 0-2.219.314-2.892.94-.676.629-1.012 1.471-1.012 2.531 0 1.544.771 2.845 2.314 3.905 1.541 1.062 3.952 2.314 7.231 3.76 4.049 1.832 7.375 3.593 9.978 5.278 2.603 1.688 4.892 4.027 6.869 7.014 1.975 2.989 2.965 6.702 2.965 11.135 0 6.749-2.267 12.197-6.797 16.341-4.533 4.146-10.413 6.218-17.643 6.218-5.399-.001-10.049-1.158-13.954-3.471z"/>
  <path id="logo-06-e" fill="#232323" d="M295.606 101.068c-4.435-4.578-6.652-10.63-6.652-18.149V56.31c.192-7.326 2.579-13.183 7.158-17.57 4.578-4.386 10.579-6.58 18.004-6.58 4.531 0 8.627 1.012 12.292 3.037 3.663 2.024 6.555 4.869 8.676 8.532 2.119 3.664 3.182 7.859 3.182 12.581 0 6.846-2.242 12.364-6.725 16.558-4.483 4.194-10.339 6.291-17.57 6.291h-4.917v5.061c0 1.543.362 2.747 1.085 3.615.723.867 1.758 1.301 3.109 1.301 1.928 0 3.276-1.06 4.049-3.181.384-1.83 1.396-2.748 3.037-2.748h14.316c2.025 0 2.94.965 2.748 2.892-.578 6.557-3.087 11.835-7.52 15.835-4.435 4.002-10.075 6.001-16.92 6.001-7.134.001-12.919-2.288-17.352-6.867zm18.366-39.407c2.795 0 4.193-1.638 4.193-4.916 0-3.855-1.543-5.785-4.627-5.785-1.446 0-2.555.434-3.326 1.302-.772.867-1.157 2.074-1.157 3.615v5.784h4.917z"/>
  <path id="logo-07-a" fill="#232323" d="M375.865 103.309v-72.16c0-8.388 2.433-15.134 7.303-20.246 4.867-5.109 11.301-7.664 19.305-7.664 8.001 0 14.436 2.555 19.306 7.664 4.867 5.112 7.302 11.858 7.302 20.246v72.16c0 1.93-.964 2.892-2.891 2.892h-15.473c-1.931 0-2.893-.962-2.893-2.892V76.99h-10.701v26.319c0 1.93-.965 2.892-2.893 2.892h-15.472c-1.931 0-2.893-.962-2.893-2.892zm31.958-45.842V29.413c0-1.928-.483-3.446-1.446-4.556-.965-1.107-2.266-1.663-3.905-1.663-1.64 0-2.942.556-3.905 1.663-.964 1.11-1.446 2.628-1.446 4.556v28.054h10.702z"/>
  <path id="logo-08-c" fill="#232323" d="M445.565 101.068c-4.533-4.578-6.798-10.63-6.798-18.149V57.178c0-7.52 2.242-13.568 6.724-18.148 4.484-4.578 10.34-6.869 17.57-6.869 6.941 0 12.604 2.097 16.992 6.29 4.387 4.193 6.869 9.906 7.447 17.137v.433c0 1.735-.918 2.603-2.748 2.603h-14.605c-1.64 0-2.603-.963-2.891-2.892-.29-1.735-.774-2.965-1.447-3.688-.675-.723-1.591-1.085-2.748-1.085-1.253 0-2.266.434-3.037 1.302-.772.867-1.157 2.074-1.157 3.615V84.22c0 1.543.385 2.747 1.157 3.615.771.867 1.83 1.301 3.182 1.301 2.505 0 3.999-1.735 4.482-5.206.29-1.928 1.253-2.892 2.893-2.892h14.605c2.025 0 2.941 1.11 2.748 3.326-.578 7.327-3.062 13.087-7.447 17.281-4.388 4.193-10.051 6.29-16.992 6.29-7.424.001-13.399-2.288-17.93-6.867z"/>
  <path id="logo-09-a" fill="#232323" d="M500.876 101.139c-4.677-4.53-7.013-10.507-7.013-17.931 0-6.555 2.24-11.905 6.724-16.052 4.482-4.144 10.291-6.218 17.425-6.218h4.918v-5.061c0-1.541-.362-2.748-1.085-3.615-.723-.868-1.76-1.302-3.108-1.302-2.604 0-4.002 1.352-4.195 4.05-.097.867-.361 1.423-.795 1.663-.434.242-1.135.361-2.097.361h-14.028c-2.025 0-2.942-.962-2.748-2.892.579-6.652 3.059-11.978 7.447-15.979 4.387-4 9.954-6.001 16.704-6.001 7.133 0 12.893 2.291 17.281 6.869 4.385 4.58 6.579 10.629 6.579 18.148V84.22c0 7.23-2.074 12.992-6.218 17.28-4.146 4.291-9.93 6.435-17.353 6.435-7.616.001-13.762-2.263-18.438-6.796zm22.054-16.774v-6.218h-3.616c-1.734 0-3.062.434-3.976 1.301-.917.868-1.374 2.122-1.374 3.76 0 1.833.456 3.254 1.374 4.266.914 1.012 2.145 1.518 3.688 1.518 2.602 0 3.904-1.541 3.904-4.627z"/>
  <path id="logo-10-d" fill="#232323" d="M600.44 7.866v75.053c0 7.52-2.242 13.571-6.724 18.149-4.482 4.58-10.437 6.869-17.859 6.869-7.425 0-13.377-2.289-17.86-6.869-4.482-4.578-6.724-10.63-6.724-18.149V57.178c0-7.52 1.856-13.568 5.567-18.148 3.71-4.578 8.7-6.869 14.967-6.869 3.759 0 6.652.723 8.677 2.169V7.866c0-1.928.962-2.892 2.891-2.892h14.173c1.927 0 2.892.964 2.892 2.892zm-19.955 48.01c0-1.541-.412-2.748-1.23-3.615-.82-.868-1.952-1.302-3.397-1.302-1.447 0-2.58.434-3.399 1.302-.82.867-1.229 2.074-1.229 3.615V84.22c0 1.543.409 2.747 1.229 3.615.819.867 1.951 1.301 3.399 1.301 1.446 0 2.577-.434 3.397-1.301.819-.868 1.23-2.072 1.23-3.615V55.876z"/>
  <path id="logo-11-e" fill="#232323" d="M616.057 101.068c-4.436-4.578-6.652-10.63-6.652-18.149V56.31c.193-7.326 2.579-13.183 7.158-17.57 4.578-4.386 10.579-6.58 18.004-6.58 4.53 0 8.628 1.012 12.291 3.037 3.664 2.024 6.555 4.869 8.677 8.532 2.119 3.664 3.182 7.859 3.182 12.581 0 6.846-2.242 12.364-6.724 16.558-4.484 4.194-10.34 6.291-17.57 6.291h-4.918v5.061c0 1.543.362 2.747 1.085 3.615.723.867 1.758 1.301 3.108 1.301 1.928 0 3.277-1.06 4.05-3.181.385-1.83 1.396-2.748 3.037-2.748h14.316c2.025 0 2.939.965 2.748 2.892-.578 6.557-3.086 11.835-7.52 15.835-4.434 4.002-10.075 6.001-16.919 6.001-7.136.001-12.92-2.288-17.353-6.867zm18.366-39.407c2.794 0 4.193-1.638 4.193-4.916 0-3.855-1.543-5.785-4.627-5.785-1.447 0-2.556.434-3.327 1.302-.772.867-1.157 2.074-1.157 3.615v5.784h4.918z"/>
  <path id="logo-12-m" fill="#232323" d="M735.359 39.029c4.339 4.58 6.507 10.629 6.507 18.148v46.131c0 1.93-.964 2.892-2.891 2.892h-13.882c-1.931 0-2.893-.962-2.893-2.892V55.876c0-1.541-.361-2.748-1.083-3.615-.724-.868-1.714-1.302-2.965-1.302-1.254 0-2.242.434-2.965 1.302-.723.867-1.085 2.074-1.085 3.615v47.432c0 1.93-.965 2.892-2.891 2.892h-13.884c-1.929 0-2.891-.962-2.891-2.892V55.876c0-1.541-.362-2.748-1.085-3.615-.723-.868-1.712-1.302-2.965-1.302s-2.24.434-2.963 1.302c-.724.867-1.085 2.074-1.085 3.615v47.432c0 1.93-.965 2.892-2.893 2.892h-13.882c-1.929 0-2.891-.962-2.891-2.892v-46.13c0-7.52 2.169-13.568 6.507-18.148 4.339-4.578 10.073-6.869 17.208-6.869 5.301 0 9.928 1.59 13.884 4.772 3.951-3.182 8.578-4.772 13.882-4.772 7.131 0 12.868 2.29 17.206 6.868z"/>
  <path id="logo-13-y" fill="#232323" d="M800 36.788v75.053c0 7.903-2.146 14.05-6.435 18.438-4.291 4.386-10.244 6.58-17.859 6.58-7.136 0-12.823-2.122-17.064-6.364-4.243-4.243-6.604-10.22-7.086-17.931v-.434c0-1.735.916-2.603 2.748-2.603h14.316c1.541 0 2.553.962 3.037 2.892.482 3.759 1.83 5.64 4.05 5.64 1.348 0 2.408-.434 3.182-1.302.771-.867 1.157-2.074 1.157-3.615v-12.003c-1.931 1.446-4.291 2.169-7.086 2.169-4.05 0-7.713-1.035-10.991-3.109-3.278-2.072-5.856-5.012-7.736-8.821-1.88-3.807-2.82-8.171-2.82-13.088V36.788c0-1.928.962-2.892 2.891-2.892h14.173c1.926 0 2.891.965 2.891 2.892v42.804c0 1.544.385 2.748 1.157 3.616.771.867 1.83 1.301 3.182 1.301 1.348 0 2.408-.434 3.182-1.301.771-.868 1.157-2.072 1.157-3.616V36.788c0-1.928.962-2.892 2.891-2.892h14.173c1.925 0 2.89.965 2.89 2.892z"/>
</svg>
